<svg width="98" height="28" viewBox="0 0 98 28" fill="none" xmlns="http://www.w3.org/2000/svg">
<path d="M10.4533 6.34667H14.3733V25.5733C14.3733 26.2785 14.1452 26.8593 13.6889 27.3156C13.2533 27.7719 12.683 28 11.9778 28H2.8V24.2667H9.61333C10.1733 24.2667 10.4533 23.9556 10.4533 23.3333V19.5378H9.89333C9.20889 21.3215 7.7363 22.2133 5.47555 22.2133C4.70815 22.2133 3.99259 22.0889 3.32889 21.84C2.66519 21.5911 2.08444 21.2074 1.58667 20.6889C1.08889 20.1704 0.694815 19.5274 0.404445 18.76C0.134815 17.9719 0 17.0489 0 15.9911V6.34667H3.92V15.1822C3.92 16.2815 4.17926 17.1422 4.69778 17.7644C5.2163 18.3659 5.99407 18.6667 7.03111 18.6667C8.21333 18.6667 9.07407 18.2933 9.61333 17.5467C10.1733 16.7793 10.4533 15.7422 10.4533 14.4356V6.34667Z" fill="black"/>
<path d="M32.0989 14.2489C32.0989 15.5348 31.8811 16.6756 31.4456 17.6711C31.01 18.6459 30.4189 19.4756 29.6722 20.16C28.9256 20.8237 28.0648 21.3319 27.09 21.6844C26.136 22.037 25.13 22.2133 24.0722 22.2133C23.0145 22.2133 21.9982 22.037 21.0234 21.6844C20.0693 21.3319 19.2189 20.8237 18.4722 20.16C17.7256 19.4756 17.1345 18.6459 16.6989 17.6711C16.2634 16.6756 16.0456 15.5348 16.0456 14.2489V13.8756C16.0456 12.6104 16.2634 11.4904 16.6989 10.5156C17.1345 9.52 17.7256 8.68 18.4722 7.99556C19.2189 7.31111 20.0693 6.79259 21.0234 6.44C21.9982 6.08741 23.0145 5.91111 24.0722 5.91111C25.13 5.91111 26.136 6.08741 27.09 6.44C28.0648 6.79259 28.9256 7.31111 29.6722 7.99556C30.4189 8.68 31.01 9.52 31.4456 10.5156C31.8811 11.4904 32.0989 12.6104 32.0989 13.8756V14.2489ZM24.0722 18.48C24.6322 18.48 25.1611 18.3867 25.6589 18.2C26.1567 18.0133 26.5922 17.7437 26.9656 17.3911C27.3389 17.0385 27.6293 16.6133 27.8367 16.1156C28.0648 15.597 28.1789 15.0163 28.1789 14.3733V13.7511C28.1789 13.1081 28.0648 12.5378 27.8367 12.04C27.6293 11.5215 27.3389 11.0859 26.9656 10.7333C26.5922 10.3807 26.1567 10.1111 25.6589 9.92445C25.1611 9.73778 24.6322 9.64445 24.0722 9.64445C23.5122 9.64445 22.9834 9.73778 22.4856 9.92445C21.9878 10.1111 21.5522 10.3807 21.1789 10.7333C20.8056 11.0859 20.5048 11.5215 20.2767 12.04C20.0693 12.5378 19.9656 13.1081 19.9656 13.7511V14.3733C19.9656 15.0163 20.0693 15.597 20.2767 16.1156C20.5048 16.6133 20.8056 17.0385 21.1789 17.3911C21.5522 17.7437 21.9878 18.0133 22.4856 18.2C22.9834 18.3867 23.5122 18.48 24.0722 18.48Z" fill="black"/>
<path d="M44.2089 6.34667H48.1289V21.7778H44.2089V19.5378H43.6489C42.9645 21.3215 41.4919 22.2133 39.2311 22.2133C38.4637 22.2133 37.7482 22.0889 37.0845 21.84C36.4208 21.5911 35.84 21.2074 35.3422 20.6889C34.8445 20.1704 34.4504 19.5274 34.16 18.76C33.8904 17.9719 33.7556 17.0489 33.7556 15.9911V6.34667H37.6756V15.1822C37.6756 16.2815 37.9348 17.1422 38.4534 17.7644C38.9719 18.3659 39.7497 18.6667 40.7867 18.6667C41.9689 18.6667 42.8297 18.2933 43.3689 17.5467C43.9289 16.7793 44.2089 15.7422 44.2089 14.4356V6.34667Z" fill="black"/>
<path d="M53.7522 10.7022C53.7522 11.2 54.0115 11.563 54.53 11.7911C55.0485 11.9985 55.9922 12.1748 57.3611 12.32C58.9374 12.4859 60.2234 12.963 61.2189 13.7511C62.2145 14.5185 62.7122 15.597 62.7122 16.9867V17.1733C62.7122 18.7081 62.1522 19.9319 61.0322 20.8444C59.9122 21.757 58.3359 22.2133 56.3034 22.2133C55.1004 22.2133 54.0737 22.0578 53.2234 21.7467C52.373 21.4356 51.6678 21.0519 51.1078 20.5956C50.5478 20.1185 50.1122 19.6 49.8011 19.04C49.5108 18.4593 49.3137 17.8993 49.21 17.36L52.8189 16.1778C52.9848 16.8415 53.3271 17.4222 53.8456 17.92C54.3848 18.4178 55.2041 18.6667 56.3034 18.6667C57.2782 18.6667 57.9419 18.5215 58.2945 18.2311C58.6678 17.92 58.8545 17.5881 58.8545 17.2356C58.8545 17.0281 58.8026 16.8415 58.6989 16.6756C58.6159 16.4889 58.45 16.323 58.2011 16.1778C57.9522 16.0119 57.61 15.877 57.1745 15.7733C56.7597 15.6696 56.2308 15.5867 55.5878 15.5244C53.8456 15.3793 52.4559 14.9333 51.4189 14.1867C50.4026 13.4193 49.8945 12.2993 49.8945 10.8267V10.64C49.8945 9.87259 50.0604 9.19852 50.3922 8.61778C50.7241 8.03704 51.1597 7.54963 51.6989 7.15556C52.2382 6.74074 52.8604 6.42963 53.5656 6.22222C54.2708 6.01482 54.9967 5.91111 55.7434 5.91111C56.7182 5.91111 57.5582 6.03556 58.2634 6.28444C58.9893 6.51259 59.6011 6.8237 60.0989 7.21778C60.5967 7.59111 61.0011 8.0163 61.3122 8.49333C61.6234 8.94963 61.8619 9.39556 62.0278 9.83111L58.4811 11.2622C58.2945 10.7022 57.973 10.2667 57.5167 9.95556C57.0604 9.6237 56.4693 9.45778 55.7434 9.45778C55.0797 9.45778 54.5819 9.58222 54.25 9.83111C53.9182 10.0593 53.7522 10.3496 53.7522 10.7022Z" fill="black"/>
<path d="M68.5767 21.7778H64.6567V0H68.5767V8.83556H69.1367C69.5308 7.90222 70.1115 7.18667 70.8789 6.68889C71.6463 6.17037 72.59 5.91111 73.71 5.91111C74.4774 5.91111 75.1826 6.03556 75.8256 6.28444C76.4685 6.53333 77.0285 6.90667 77.5056 7.40445C77.9826 7.90222 78.3559 8.54519 78.6256 9.33333C78.8952 10.1007 79.03 11.0133 79.03 12.0711V21.7778H75.11V13.0044C75.11 11.9052 74.8404 11.0444 74.3011 10.4222C73.7826 9.77926 73.0256 9.45778 72.03 9.45778C70.8685 9.45778 69.9974 9.85185 69.4167 10.64C68.8567 11.4074 68.5767 12.4444 68.5767 13.7511V21.7778Z" fill="black"/>
<path d="M92.0811 19.5378C91.6663 20.5126 91.0856 21.2074 90.3389 21.6222C89.5922 22.0163 88.7211 22.2133 87.7256 22.2133C86.7922 22.2133 85.9108 22.037 85.0811 21.6844C84.2722 21.3319 83.5567 20.8133 82.9345 20.1289C82.3122 19.4444 81.8145 18.6148 81.4411 17.64C81.0885 16.6652 80.9122 15.5556 80.9122 14.3111V13.8133C80.9122 12.5896 81.0885 11.4904 81.4411 10.5156C81.7937 9.54074 82.2708 8.71111 82.8722 8.02667C83.4737 7.34222 84.1685 6.8237 84.9567 6.47111C85.7656 6.09778 86.6263 5.91111 87.5389 5.91111C88.6382 5.91111 89.5196 6.09778 90.1833 6.47111C90.8678 6.84445 91.4071 7.42519 91.8011 8.21333H92.3611V6.34667H96.2811V17.1111C96.2811 17.7333 96.5611 18.0444 97.1211 18.0444H97.7122V21.7778H95.0367C94.3315 21.7778 93.7508 21.5704 93.2945 21.1556C92.8589 20.7407 92.6411 20.2015 92.6411 19.5378H92.0811ZM88.5967 18.48C89.7374 18.48 90.65 18.1067 91.3345 17.36C92.0189 16.5926 92.3611 15.5556 92.3611 14.2489V13.8756C92.3611 12.5689 92.0189 11.5422 91.3345 10.7956C90.65 10.0281 89.7374 9.64445 88.5967 9.64445C87.4559 9.64445 86.5434 10.0281 85.8589 10.7956C85.1745 11.5422 84.8322 12.5689 84.8322 13.8756V14.2489C84.8322 15.5556 85.1745 16.5926 85.8589 17.36C86.5434 18.1067 87.4559 18.48 88.5967 18.48Z" fill="black"/>
</svg>
